<svg width="61" height="61" viewBox="0 0 61 61" fill="none" xmlns="http://www.w3.org/2000/svg">
<g clip-path="url(#clip0)">
<path d="M0.893555 44.5386C1.38687 44.5386 1.78711 44.1388 1.78711 43.645V17.6198H54.5818V27.4419C54.5818 27.9357 54.982 28.3355 55.4753 28.3355C55.9691 28.3355 56.3689 27.9357 56.3689 27.4419V9.78256C56.3689 6.78683 53.9316 4.34956 50.9363 4.34956H48.5931V3.24286C48.5931 2.04587 47.6195 1.07227 46.4225 1.07227H44.7624C43.5659 1.07227 42.5923 2.04587 42.5923 3.24286V4.34956H36.666V3.24286C36.666 2.04587 35.6924 1.07227 34.4954 1.07227H32.8353C31.6388 1.07227 30.6652 2.04587 30.6652 3.24286V4.34956H24.7384V3.24286C24.7384 2.04587 23.7648 1.07227 22.5678 1.07227H20.9082C19.7113 1.07227 18.7377 2.04587 18.7377 3.24286V4.34956H12.8113V3.24286C12.8113 2.04587 11.8377 1.07227 10.6407 1.07227H8.98116C7.78416 1.07227 6.81056 2.04587 6.81056 3.24286V4.34956H5.433C2.43726 4.34956 0 6.78683 0 9.78256V43.645C0 44.1388 0.400238 44.5386 0.893555 44.5386ZM44.3794 3.24286C44.3794 3.03157 44.5516 2.85938 44.7629 2.85938H46.423C46.6342 2.85938 46.806 3.03157 46.806 3.24286V7.58405C46.806 7.79533 46.6342 7.96753 46.423 7.96753H44.7629C44.5516 7.96753 44.3794 7.7958 44.3794 7.58405V3.24286ZM32.4523 3.24286C32.4523 3.03157 32.6241 2.85938 32.8353 2.85938H34.4954C34.7067 2.85938 34.8789 3.03157 34.8789 3.24286V7.58405C34.8789 7.79533 34.7067 7.96753 34.4954 7.96753H32.8353C32.6241 7.96753 32.4523 7.7958 32.4523 7.58405V3.24286ZM20.5248 3.24286C20.5248 3.03157 20.697 2.85938 20.9082 2.85938H22.5683C22.7796 2.85938 22.9518 3.03157 22.9518 3.24286V7.58405C22.9518 7.79533 22.7796 7.96753 22.5683 7.96753H20.9082C20.697 7.96753 20.5248 7.7958 20.5248 7.58405V3.24286ZM8.59767 3.24286C8.59767 3.03157 8.76987 2.85938 8.98116 2.85938H10.6412C10.8525 2.85938 11.0242 3.03157 11.0242 3.24286V7.58405C11.0242 7.79533 10.8525 7.96753 10.6412 7.96753H8.98116C8.76987 7.96753 8.59767 7.7958 8.59767 7.58405V3.24286ZM5.433 6.13667H6.81056V7.58405C6.81056 8.78104 7.78416 9.75464 8.98116 9.75464H10.6412C11.8377 9.75464 12.8113 8.78104 12.8113 7.58405V6.13667H18.7381V7.58405C18.7381 8.78104 19.7117 9.75464 20.9082 9.75464H22.5683C23.7653 9.75464 24.7389 8.78104 24.7389 7.58405V6.13667H30.6652V7.58405C30.6652 8.78104 31.6388 9.75464 32.8358 9.75464H34.4959C35.6924 9.75464 36.666 8.78104 36.666 7.58405V6.13667H42.5923V7.58405C42.5923 8.78104 43.5659 9.75464 44.7629 9.75464H46.423C47.6195 9.75464 48.5931 8.78104 48.5931 7.58405V6.13667H50.9363C52.9468 6.13667 54.5822 7.77206 54.5822 9.78256V15.8327H1.78711V9.78256C1.78711 7.77206 3.4225 6.13667 5.433 6.13667Z" fill="#5EA0C4"/>
<path d="M10.1162 52.8486H2.32464C2.02818 52.8486 1.78711 52.6075 1.78711 52.3111V47.7172C1.78711 47.2234 1.38687 46.8236 0.893555 46.8236C0.400238 46.8236 0 47.2234 0 47.7172V52.3111C0 53.5928 1.04295 54.6357 2.32464 54.6357H10.1162C10.6096 54.6357 11.0098 54.2355 11.0098 53.7421C11.0098 53.2484 10.6096 52.8486 10.1162 52.8486Z" fill="#5EA0C4"/>
<path d="M10.0865 20.2255H6.98047C6.48715 20.2255 6.08691 20.6257 6.08691 21.119C6.08691 21.6128 6.48715 22.0126 6.98047 22.0126H10.0865C10.5798 22.0126 10.9801 21.6128 10.9801 21.119C10.9801 20.6257 10.5798 20.2255 10.0865 20.2255Z" fill="#5EA0C4"/>
<path d="M16.5256 22.0126H19.6317C20.125 22.0126 20.5252 21.6128 20.5252 21.119C20.5252 20.6257 20.125 20.2255 19.6317 20.2255H16.5256C16.0323 20.2255 15.6321 20.6257 15.6321 21.119C15.6321 21.6128 16.0323 22.0126 16.5256 22.0126Z" fill="#5EA0C4"/>
<path d="M26.0708 22.0126H29.1764C29.6697 22.0126 30.0699 21.6128 30.0699 21.119C30.0699 20.6257 29.6697 20.2255 29.1764 20.2255H26.0708C25.577 20.2255 25.1772 20.6257 25.1772 21.119C25.1772 21.6128 25.577 22.0126 26.0708 22.0126Z" fill="#5EA0C4"/>
<path d="M35.6156 22.0126H38.7216C39.215 22.0126 39.6152 21.6128 39.6152 21.119C39.6152 20.6257 39.215 20.2255 38.7216 20.2255H35.6156C35.1223 20.2255 34.722 20.6257 34.722 21.119C34.722 21.6128 35.1223 22.0126 35.6156 22.0126Z" fill="#5EA0C4"/>
<path d="M48.2663 20.2255H45.1608C44.667 20.2255 44.2672 20.6257 44.2672 21.119C44.2672 21.6128 44.667 22.0126 45.1608 22.0126H48.2663C48.7597 22.0126 49.1599 21.6128 49.1599 21.119C49.1599 20.6257 48.7597 20.2255 48.2663 20.2255Z" fill="#5EA0C4"/>
<path d="M10.0865 24.7189H6.98047C6.48715 24.7189 6.08691 25.1186 6.08691 25.6124C6.08691 26.1062 6.48715 26.506 6.98047 26.506H10.0865C10.5798 26.506 10.9801 26.1062 10.9801 25.6124C10.9801 25.1186 10.5798 24.7189 10.0865 24.7189Z" fill="#5EA0C4"/>
<path d="M16.5256 26.506H19.6317C20.125 26.506 20.5252 26.1062 20.5252 25.6124C20.5252 25.1186 20.125 24.7189 19.6317 24.7189H16.5256C16.0323 24.7189 15.6321 25.1186 15.6321 25.6124C15.6321 26.1062 16.0323 26.506 16.5256 26.506Z" fill="#5EA0C4"/>
<path d="M26.0708 26.506H29.1764C29.6697 26.506 30.0699 26.1062 30.0699 25.6124C30.0699 25.1186 29.6697 24.7189 29.1764 24.7189H26.0708C25.577 24.7189 25.1772 25.1186 25.1772 25.6124C25.1772 26.1062 25.577 26.506 26.0708 26.506Z" fill="#5EA0C4"/>
<path d="M35.6156 26.506H38.7216C39.215 26.506 39.6152 26.1062 39.6152 25.6124C39.6152 25.1186 39.215 24.7189 38.7216 24.7189H35.6156C35.1223 24.7189 34.722 25.1186 34.722 25.6124C34.722 26.1062 35.1223 26.506 35.6156 26.506Z" fill="#5EA0C4"/>
<path d="M48.2663 24.7189H45.1608C44.667 24.7189 44.2672 25.1186 44.2672 25.6124C44.2672 26.1062 44.667 26.506 45.1608 26.506H48.2663C48.7597 26.506 49.1599 26.1062 49.1599 25.6124C49.1599 25.1186 48.7597 24.7189 48.2663 24.7189Z" fill="#5EA0C4"/>
<path d="M16.5475 44.048L21.1418 48.6424C21.8064 49.307 22.6897 49.6728 23.6298 49.6728C24.5699 49.6728 25.4537 49.307 26.1178 48.6424L38.6997 36.0605C40.0717 34.6885 40.0717 32.456 38.6997 31.084C37.3277 29.7121 35.0952 29.7121 33.7233 31.084L23.6298 41.1775L21.5235 39.0716C20.1519 37.6996 17.9195 37.6996 16.547 39.0716C15.1755 40.4436 15.1755 42.6761 16.5475 44.048ZM17.811 40.3351C18.1484 39.9977 18.5919 39.8288 19.0355 39.8288C19.479 39.8288 19.9225 39.9977 20.2599 40.3351L22.9978 43.073C23.3469 43.4221 23.9123 43.4221 24.2614 43.073L34.9868 32.348C35.6626 31.6728 36.7609 31.6728 37.4357 32.3476C38.111 33.0229 38.111 34.1217 37.4357 34.7969L24.8543 47.3784C24.5271 47.7056 24.0924 47.8857 23.6298 47.8857C23.1672 47.8857 22.7325 47.7056 22.4054 47.3784L17.811 42.784C17.1357 42.1087 17.1357 41.0104 17.811 40.3351Z" fill="#5EA0C4"/>
<path d="M56.3689 38.6443V31.514C56.3689 31.0203 55.9691 30.6205 55.4753 30.6205C54.982 30.6205 54.5818 31.0203 54.5818 31.514V37.5046C52.9524 36.6599 51.1034 36.1819 49.1451 36.1819C42.6081 36.1819 37.2901 41.5 37.2901 48.0369C37.2901 49.7491 37.6554 51.377 38.3112 52.8486H14.188C13.6947 52.8486 13.2944 53.2484 13.2944 53.7421C13.2944 54.2355 13.6947 54.6357 14.188 54.6357H39.3011C41.4312 57.8036 45.0487 59.8918 49.1451 59.8918C55.682 59.8918 61 54.5738 61 48.0369C61 44.2169 59.1831 40.8135 56.3689 38.6443ZM49.1451 58.1047C43.5934 58.1047 39.0772 53.5886 39.0772 48.0369C39.0772 42.4852 43.5938 37.969 49.1451 37.969C54.6963 37.969 59.2129 42.4852 59.2129 48.0369C59.2129 53.5886 54.6963 58.1047 49.1451 58.1047Z" fill="#5EA0C4"/>
<path d="M49.145 39.2601C44.3054 39.2601 40.3682 43.1978 40.3682 48.037C40.3682 52.8766 44.3054 56.8138 49.145 56.8138C53.9846 56.8138 57.9214 52.8766 57.9214 48.037C57.9214 43.1978 53.9842 39.2601 49.145 39.2601ZM49.945 54.9792C50.0041 54.8596 50.0386 54.7256 50.0386 54.5832V53.4946C50.0386 53.0013 49.6383 52.6011 49.145 52.6011C48.6517 52.6011 48.2515 53.0013 48.2515 53.4946V54.5832C48.2515 54.7256 48.2854 54.8596 48.345 54.9792C45.1291 54.6111 42.5709 52.0529 42.2027 48.837C42.3219 48.8966 42.4564 48.9305 42.5988 48.9305H43.6869C44.1807 48.9305 44.5804 48.5308 44.5804 48.037C44.5804 47.5432 44.1807 47.1434 43.6869 47.1434H42.5988C42.4564 47.1434 42.3219 47.1779 42.2027 47.237C42.5709 44.0211 45.1291 41.4628 48.345 41.0947C48.2854 41.2143 48.2515 41.3484 48.2515 41.4908V42.5793C48.2515 43.0731 48.6517 43.4729 49.145 43.4729C49.6383 43.4729 50.0386 43.0731 50.0386 42.5793V41.4908C50.0386 41.3484 50.0041 41.2143 49.945 41.0947C53.1609 41.4628 55.7192 44.0211 56.0873 47.237C55.9677 47.1779 55.8336 47.1434 55.6912 47.1434H54.6027C54.1094 47.1434 53.7091 47.5432 53.7091 48.037C53.7091 48.5308 54.1094 48.9305 54.6027 48.9305H55.6912C55.8336 48.9305 55.9677 48.8966 56.0873 48.837C55.7187 52.0529 53.1609 54.6111 49.945 54.9792Z" fill="#5EA0C4"/>
<path d="M51.1146 47.1434H50.0386V46.2271C50.0386 45.7337 49.6383 45.3335 49.145 45.3335C48.6512 45.3335 48.2515 45.7337 48.2515 46.2271V48.037C48.2515 48.5307 48.6512 48.9305 49.145 48.9305H51.1146C51.6079 48.9305 52.0081 48.5307 52.0081 48.037C52.0081 47.5432 51.6079 47.1434 51.1146 47.1434Z" fill="#5EA0C4"/>
</g>
<defs>
<clipPath id="clip0">
<rect width="61" height="61" fill="white"/>
</clipPath>
</defs>
</svg>
