<svg width="57" height="57" viewBox="0 0 57 57" fill="none" xmlns="http://www.w3.org/2000/svg">
<path d="M30.9976 25.9186V22.447C30.9976 21.9861 30.6236 21.6121 30.1626 21.6121H14.6641C14.2027 21.6121 13.8291 21.9861 13.8291 22.447V25.9186C13.8291 26.3796 14.2027 26.7536 14.6641 26.7536H30.1626C30.6236 26.7536 30.9976 26.38 30.9976 25.9186ZM29.3276 25.0837H15.499V23.282H29.3276V25.0837Z" fill="#5EA0C4"/>
<path d="M31.7211 48.3503H42.496C42.957 48.3503 43.3309 47.9763 43.3309 47.5154V44.0433C43.3309 43.5824 42.957 43.2084 42.496 43.2084H31.7211C31.2597 43.2084 30.8861 43.5824 30.8861 44.0433V47.5154C30.8861 47.9763 31.2597 48.3503 31.7211 48.3503ZM32.556 44.8783H41.661V46.6804H32.556V44.8783Z" fill="#5EA0C4"/>
<path d="M42.4961 16.554H14.6641C14.2027 16.554 13.8291 16.9279 13.8291 17.3889C13.8291 17.8503 14.2027 18.2239 14.6641 18.2239H42.4961C42.9571 18.2239 43.3311 17.8503 43.3311 17.3889C43.3311 16.9279 42.9571 16.554 42.4961 16.554Z" fill="#5EA0C4"/>
<path d="M24.7632 30.4143C24.7632 29.9533 24.3892 29.5793 23.9282 29.5793H14.6641C14.2027 29.5793 13.8291 29.9533 13.8291 30.4143C13.8291 30.8757 14.2027 31.2493 14.6641 31.2493H23.9282C24.3892 31.2493 24.7632 30.8757 24.7632 30.4143Z" fill="#5EA0C4"/>
<path d="M22.4131 33.7916H14.6641C14.2027 33.7916 13.8291 34.1652 13.8291 34.6266C13.8291 35.0876 14.2027 35.4615 14.6641 35.4615H22.4131C22.8745 35.4615 23.2481 35.0876 23.2481 34.6266C23.2481 34.1652 22.8745 33.7916 22.4131 33.7916Z" fill="#5EA0C4"/>
<path d="M22.4131 38.0033H14.6641C14.2027 38.0033 13.8291 38.3773 13.8291 38.8383C13.8291 39.2997 14.2027 39.6732 14.6641 39.6732H22.4131C22.8745 39.6732 23.2481 39.2997 23.2481 38.8383C23.2481 38.3773 22.8745 38.0033 22.4131 38.0033Z" fill="#5EA0C4"/>
<path d="M42.4961 38.0033H38.6213C38.1599 38.0033 37.7864 38.3773 37.7864 38.8383C37.7864 39.2997 38.1599 39.6732 38.6213 39.6732H42.4961C42.957 39.6732 43.331 39.2997 43.331 38.8383C43.331 38.3773 42.957 38.0033 42.4961 38.0033Z" fill="#5EA0C4"/>
<path d="M42.4961 33.7916H38.6213C38.1599 33.7916 37.7864 34.1656 37.7864 34.6266C37.7864 35.0876 38.1599 35.4615 38.6213 35.4615H42.4961C42.957 35.4615 43.331 35.0876 43.331 34.6266C43.331 34.1656 42.957 33.7916 42.4961 33.7916Z" fill="#5EA0C4"/>
<path d="M42.4961 29.5793H38.6213C38.1599 29.5793 37.7864 29.9533 37.7864 30.4143C37.7864 30.8757 38.1599 31.2493 38.6213 31.2493H42.4961C42.957 31.2493 43.331 30.8757 43.331 30.4143C43.331 29.9533 42.957 29.5793 42.4961 29.5793Z" fill="#5EA0C4"/>
<path d="M45.8598 19.642C46.3208 19.642 46.6948 19.268 46.6948 18.8071V0.834961C46.6948 0.373993 46.3208 0 45.8598 0C43.2131 0 42.9914 3.33984 41.5389 3.33984C40.0873 3.33984 39.8681 0 37.2184 0C34.5726 0 34.3499 3.33984 32.8988 3.33984C31.4424 3.33984 31.2328 0 28.5783 0C25.9325 0 25.7103 3.33984 24.2587 3.33984C22.8092 3.33984 22.5861 0 19.939 0C17.2928 0 17.071 3.33984 15.6194 3.33984C14.163 3.33984 13.9547 0 11.2998 0C10.8384 0 10.4648 0.373993 10.4648 0.834961V56.165C10.4648 56.626 10.8384 57 11.2998 57C13.946 57 14.1682 53.6602 15.6194 53.6602C17.0754 53.6602 17.2846 57 19.939 57C22.5848 57 22.807 53.6602 24.2587 53.6602C25.7151 53.6602 25.9242 57 28.5783 57C31.2245 57 31.4472 53.6602 32.8988 53.6602C34.3552 53.6602 34.5639 57 37.2184 57C39.865 57 40.0868 53.6602 41.5389 53.6602C42.9909 53.6602 43.2101 57 45.8598 57C46.3208 57 46.6948 56.626 46.6948 56.165V21.9242C46.6948 21.4628 46.3208 21.0893 45.8598 21.0893C45.3984 21.0893 45.0248 21.4628 45.0248 21.9242V54.9087C44.1912 53.9872 43.5837 51.9902 41.5389 51.9902C38.8927 51.9902 38.6709 55.3301 37.2184 55.3301C35.7689 55.3301 35.5459 51.9902 32.8988 51.9902C30.2525 51.9902 30.0299 55.3301 28.5783 55.3301C27.1223 55.3301 26.9131 51.9902 24.2587 51.9902C21.6124 51.9902 21.3902 55.3301 19.939 55.3301C18.4822 55.3301 18.2739 51.9902 15.6194 51.9902C13.5759 51.9902 12.9689 53.9859 12.1348 54.9082V2.09175C12.9671 3.01238 13.5755 5.00977 15.6199 5.00977C18.2656 5.00977 18.4879 1.66992 19.939 1.66992C21.3959 1.66992 21.6042 5.00977 24.2587 5.00977C26.9049 5.00977 27.1271 1.66992 28.5787 1.66992C30.0351 1.66992 30.2443 5.00977 32.8988 5.00977C35.545 5.00977 35.7668 1.66992 37.2188 1.66992C38.6709 1.66992 38.89 5.00977 41.5393 5.00977C43.5837 5.00977 44.1916 3.01282 45.0248 2.09132V18.8071C45.0248 19.268 45.3984 19.642 45.8598 19.642Z" fill="#5EA0C4"/>
<path d="M43.3311 9.48462C43.3311 9.02365 42.9571 8.64966 42.4961 8.64966H22.4131C21.9517 8.64966 21.5781 9.02365 21.5781 9.48462C21.5781 9.94602 21.9517 10.3196 22.4131 10.3196H41.6611V12.1217H15.499V10.3196H19.2959C19.7573 10.3196 20.1309 9.94602 20.1309 9.48462C20.1309 9.02365 19.7573 8.64966 19.2959 8.64966H14.6641C14.2027 8.64966 13.8291 9.02365 13.8291 9.48462V12.9567C13.8291 13.4176 14.2027 13.7916 14.6641 13.7916H42.4961C42.9571 13.7916 43.3311 13.4176 43.3311 12.9567V9.48462Z" fill="#5EA0C4"/>
</svg>
