<svg width="74" height="74" viewBox="0 0 74 74" fill="none" xmlns="http://www.w3.org/2000/svg">
<path d="M68.8197 33.4391L66.9034 25.7739C67.4273 25.6626 67.8204 25.1978 67.8204 24.6409V23.4051C67.8204 20.7217 65.6373 18.5387 62.9541 18.5387H54.2255V15.9894C54.2255 14.669 53.1514 13.5948 51.8309 13.5948H7.33814C6.0177 13.5948 4.94355 14.669 4.94355 15.9894V36.9999C4.94355 37.6398 5.46227 38.1587 6.10225 38.1587C6.74209 38.1587 7.26096 37.6399 7.26096 36.9999V15.9894C7.26096 15.9468 7.2955 15.9123 7.33814 15.9123H51.8308C51.8734 15.9123 51.908 15.9468 51.908 15.9894V37.0002C51.908 37.6401 52.4267 38.1589 53.0667 38.1589C53.7065 38.1589 54.2254 37.6402 54.2254 37.0002V35.6867H67.8936C67.8947 35.6867 67.8956 35.687 67.8966 35.687C67.8977 35.687 67.8988 35.6869 67.8998 35.6869C69.5817 35.688 71.0098 36.792 71.5003 38.3132H67.8975C67.2576 38.3132 66.7388 38.8319 66.7388 39.4719V41.9436C66.7388 43.9455 68.3673 45.5741 70.3692 45.5741H71.6824V50.6722H68.6528C67.6575 47.7985 64.9258 45.7285 61.7179 45.7285C58.51 45.7285 55.7781 47.7985 54.783 50.6722H54.2251V41.9435C54.2251 41.3037 53.7064 40.7848 53.0664 40.7848C52.4265 40.7848 51.9077 41.3035 51.9077 41.9435V50.6719H27.8681C26.8728 47.7982 24.1411 45.7282 20.9332 45.7282C17.7253 45.7282 14.9934 47.7982 13.9983 50.6719H7.33814C7.2955 50.6719 7.26096 50.6373 7.26096 50.5947V48.0456H12.2818C12.9217 48.0456 13.4405 47.5269 13.4405 46.8869C13.4405 46.2469 12.9218 45.7282 12.2818 45.7282H1.15871C0.518867 45.7282 0 46.2469 0 46.8869C0 47.5269 0.518723 48.0456 1.15871 48.0456H4.94369V50.5947C4.94369 51.9151 6.01785 52.9893 7.33828 52.9893H13.5971C13.5968 53.015 13.595 53.0406 13.595 53.0665C13.595 57.1128 16.887 60.4046 20.9332 60.4046C24.9793 60.4046 28.2713 57.1128 28.2713 53.0665C28.2713 53.0405 28.2696 53.015 28.2693 52.9893H54.3818C54.3815 53.015 54.3797 53.0406 54.3797 53.0665C54.3797 57.1128 57.6717 60.4046 61.7179 60.4046C65.764 60.4046 69.056 57.1128 69.056 53.0665C69.056 53.0405 69.0543 53.015 69.054 52.9893H72.8411C73.481 52.9893 73.9999 52.4706 73.9999 51.8306V39.4716C74 36.4202 71.7486 33.885 68.8197 33.4391ZM54.2255 20.856H62.9541C64.3596 20.856 65.5032 21.9995 65.5032 23.4051V23.4822H54.2255V20.856ZM54.2255 33.3695V25.7995H64.5212L66.4137 33.3695H54.2255ZM20.9332 58.0876C18.1647 58.0876 15.9123 55.8354 15.9123 53.0668C15.9123 50.2981 18.1647 48.0459 20.9332 48.0459C23.7017 48.0459 25.9541 50.2981 25.9541 53.0668C25.9541 55.8354 23.7017 58.0876 20.9332 58.0876ZM61.7182 58.0876C58.9497 58.0876 56.6973 55.8354 56.6973 53.0668C56.6973 50.2981 58.9497 48.0459 61.7182 48.0459C64.4867 48.0459 66.739 50.2981 66.739 53.0668C66.739 55.8354 64.4867 58.0876 61.7182 58.0876ZM71.6827 43.2567H70.3695C69.6454 43.2567 69.0563 42.6676 69.0563 41.9435V40.6303H71.6826V43.2567H71.6827Z" fill="#5EA0C4"/>
<path d="M20.9332 50.6722C19.6127 50.6722 18.5386 51.7464 18.5386 53.0668C18.5386 54.3873 19.6127 55.4614 20.9332 55.4614C22.2536 55.4614 23.3278 54.3873 23.3278 53.0668C23.3278 51.7464 22.2536 50.6722 20.9332 50.6722Z" fill="#5EA0C4"/>
<path d="M61.7182 50.6722C60.3978 50.6722 59.3236 51.7464 59.3236 53.0668C59.3236 54.3873 60.3978 55.4614 61.7182 55.4614C63.0386 55.4614 64.1128 54.3873 64.1128 53.0668C64.1128 51.7464 63.0386 50.6722 61.7182 50.6722Z" fill="#5EA0C4"/>
<path d="M48.1231 45.7286H30.8204C30.1806 45.7286 29.6617 46.2474 29.6617 46.8873C29.6617 47.5273 30.1805 48.0461 30.8204 48.0461H48.1231C48.763 48.0461 49.2818 47.5273 49.2818 46.8873C49.2818 46.2474 48.7631 45.7286 48.1231 45.7286Z" fill="#5EA0C4"/>
<path d="M18.4614 40.785H3.63051C2.99067 40.785 2.4718 41.3038 2.4718 41.9437C2.4718 42.5837 2.99052 43.1024 3.63051 43.1024H18.4614C19.1013 43.1024 19.6201 42.5837 19.6201 41.9437C19.6201 41.3038 19.1013 40.785 18.4614 40.785Z" fill="#5EA0C4"/>
<path d="M40.2911 25.0574C39.8388 24.605 39.105 24.605 38.6526 25.0576L28.3487 35.3613L22.9884 30.0011C22.5359 29.5486 21.8023 29.5486 21.3499 30.0011C20.8974 30.4536 20.8974 31.1871 21.3499 31.6396L27.5295 37.8192C27.7557 38.0456 28.0522 38.1586 28.3487 38.1586C28.6451 38.1586 28.9418 38.0456 29.1679 37.8192L40.291 26.6961C40.7435 26.2434 40.7435 25.5099 40.2911 25.0574Z" fill="#5EA0C4"/>
</svg>
