<svg width="61" height="61" viewBox="0 0 61 61" fill="none" xmlns="http://www.w3.org/2000/svg">
<path d="M58.3195 26.0312H57.4264V23.35V13.8188C57.4264 10.6983 54.8876 8.15952 51.7672 8.15952H27.2268L10.6707 3.42917C10.6659 3.42786 10.661 3.42714 10.6563 3.42583C10.6514 3.42452 10.6467 3.42262 10.6419 3.42142C10.6319 3.41892 10.622 3.41773 10.6121 3.41559C10.5967 3.41237 10.5813 3.40903 10.566 3.40653C10.552 3.40427 10.5383 3.40284 10.5244 3.40117C10.5082 3.39926 10.4921 3.3976 10.476 3.39664C10.4629 3.39593 10.4499 3.39581 10.4368 3.39557C10.4201 3.39533 10.4036 3.39521 10.387 3.39593C10.3747 3.3964 10.3625 3.3976 10.3503 3.39855C10.3333 3.39998 10.3162 3.40153 10.2994 3.40403C10.288 3.4057 10.2767 3.40784 10.2654 3.40987C10.248 3.41296 10.2308 3.4163 10.2138 3.42047C10.2032 3.42309 10.1928 3.42607 10.1823 3.42905C10.1649 3.43405 10.1478 3.43918 10.1306 3.44513C10.121 3.44859 10.1114 3.45228 10.1018 3.45609C10.0845 3.46277 10.0674 3.46979 10.0506 3.47754C10.0416 3.48171 10.0329 3.48624 10.0241 3.49064C10.0073 3.4991 9.99076 3.50768 9.97455 3.51733C9.96609 3.52222 9.95799 3.52746 9.94965 3.5327C9.93369 3.54271 9.91796 3.55295 9.90271 3.56403C9.89473 3.56975 9.88698 3.57595 9.87912 3.58203C9.86447 3.59334 9.84993 3.6049 9.83599 3.61717C9.82813 3.62408 9.82062 3.63135 9.813 3.6385C9.79989 3.65089 9.78691 3.66328 9.77452 3.67638C9.76677 3.6846 9.7595 3.69318 9.752 3.70176C9.74068 3.71475 9.72948 3.72785 9.71888 3.74155C9.71125 3.75144 9.7041 3.76157 9.69684 3.7717C9.68742 3.78492 9.67813 3.79826 9.66955 3.81197C9.66217 3.82364 9.65538 3.83579 9.64859 3.84783C9.64108 3.86105 9.63357 3.8744 9.62678 3.8881C9.62011 3.90144 9.61415 3.91514 9.60808 3.92884C9.60212 3.94231 9.59628 3.95577 9.59104 3.96959C9.58556 3.98412 9.58079 3.99902 9.57591 4.01403C9.57281 4.02368 9.569 4.03273 9.56614 4.0425C9.56471 4.04739 9.56411 4.05215 9.5628 4.05692C9.56149 4.0618 9.55959 4.06645 9.5584 4.07133L8.53665 8.15928H5.65976C2.54555 8.15928 0.0111992 10.6878 0.000953123 13.7997C0.000833983 13.8062 0 13.8123 0 13.8186V44.7951C0 45.2883 0.401503 45.6886 0.893553 45.6886C1.38679 45.6886 1.78711 45.2883 1.78711 44.7951V17.94C2.80028 18.8926 4.16253 19.4781 5.65976 19.4781H51.7672C51.7683 19.4781 51.7692 19.478 51.7703 19.478C53.9039 19.4796 55.6393 21.216 55.6393 23.3502V29.6055H45.8088C45.8082 29.6055 45.8077 29.6056 45.8071 29.6056C45.7812 29.6056 45.7555 29.6072 45.7299 29.6094C45.7014 29.6119 45.6733 29.616 45.6457 29.6211C45.6415 29.6218 45.6374 29.6222 45.6333 29.623C45.6099 29.6277 45.587 29.6339 45.5643 29.6403C45.5593 29.6417 45.5542 29.6427 45.5493 29.6442C45.529 29.6504 45.5094 29.6578 45.4897 29.6653C45.4822 29.6682 45.4746 29.6706 45.4671 29.6737C45.4506 29.6804 45.4348 29.6884 45.4189 29.6962C45.4085 29.7012 45.3979 29.7058 45.3876 29.7112C45.3752 29.7177 45.3635 29.7252 45.3516 29.7324C45.3384 29.7403 45.3249 29.7479 45.3121 29.7565C45.3034 29.7622 45.2954 29.7687 45.2871 29.7748C45.2718 29.7858 45.2564 29.7966 45.2419 29.8086C45.2356 29.8139 45.2297 29.8197 45.2237 29.8251C45.2081 29.8387 45.1925 29.8521 45.1777 29.8669C45.169 29.8756 45.1611 29.8851 45.1529 29.8942C45.1413 29.9067 45.1294 29.919 45.1185 29.9323C45.1 29.9548 45.0827 29.9782 45.0665 30.0024C45.0662 30.0027 45.0658 30.0032 45.0656 30.0037L40.3002 37.1522C40.267 37.202 40.2388 37.2548 40.2166 37.3097C40.2081 37.3302 40.2013 37.3511 40.1945 37.3718C40.1925 37.3781 40.1899 37.3842 40.188 37.3905C40.1813 37.4125 40.1762 37.4348 40.1713 37.457C40.17 37.4628 40.1683 37.4685 40.1671 37.4744C40.1632 37.4944 40.1606 37.5145 40.1581 37.5347C40.157 37.5432 40.1553 37.5518 40.1545 37.5605C40.1528 37.5771 40.1525 37.5935 40.1519 37.6101C40.1513 37.6227 40.1502 37.6353 40.1502 37.6481C40.1502 37.6604 40.1513 37.6726 40.1517 37.6849C40.1523 37.7018 40.1528 37.7188 40.1545 37.7358C40.1553 37.744 40.1569 37.7522 40.1579 37.7604C40.1606 37.7809 40.1632 37.8014 40.1672 37.8218C40.1683 37.8274 40.17 37.8329 40.1713 37.8385C40.1762 37.8609 40.1814 37.8833 40.1881 37.9055C40.19 37.9119 40.1926 37.9179 40.1946 37.9244C40.2014 37.9451 40.2082 37.966 40.2167 37.9864C40.2391 38.0412 40.2672 38.0941 40.3005 38.1441L45.0658 45.2915C45.066 45.2919 45.0663 45.2921 45.0665 45.2925C45.0857 45.321 45.1067 45.3481 45.1288 45.3742C45.1361 45.3828 45.1438 45.3908 45.1514 45.3989C45.1665 45.4154 45.1822 45.4314 45.1985 45.4468C45.2082 45.4558 45.2177 45.4646 45.2275 45.4731C45.2449 45.488 45.2629 45.5019 45.2813 45.5155C45.2897 45.5216 45.2977 45.5283 45.3061 45.534C45.3329 45.5522 45.3607 45.569 45.3894 45.5843C45.3967 45.5881 45.4042 45.5913 45.4114 45.5949C45.4343 45.6063 45.4577 45.6169 45.4816 45.6263C45.4909 45.63 45.5002 45.6333 45.5096 45.6367C45.5324 45.6448 45.5555 45.6519 45.5791 45.6582C45.5887 45.6607 45.5982 45.6634 45.608 45.6658C45.6322 45.6714 45.6567 45.6756 45.6816 45.6792C45.6907 45.6805 45.6996 45.6823 45.7087 45.6834C45.7394 45.6868 45.7706 45.6887 45.8023 45.689C45.8048 45.689 45.8073 45.6895 45.81 45.6895C45.8104 45.6895 45.811 45.6893 45.8116 45.6893H55.6396V51.9452C55.6396 54.0804 53.9026 55.8175 51.7676 55.8175H5.66024C3.52525 55.8175 1.78818 54.0804 1.78818 51.9452C1.78818 51.9405 1.78758 51.936 1.78746 51.9313V48.3698C1.78746 47.8777 1.38715 47.4762 0.89391 47.4762C0.401861 47.4762 0.000357421 47.8777 0.000357421 48.3698V51.9452C0.000357421 51.9545 0.00142968 51.9635 0.00178711 51.9727C0.0166797 55.0806 2.54901 57.6046 5.66024 57.6046H51.7676C54.8877 57.6046 57.4263 55.0663 57.4267 51.9461C57.4267 51.946 57.4267 51.9459 57.4267 51.9456V45.6893H58.3198C59.7976 45.6893 61 44.487 61 43.0092V28.7114C60.9996 27.2335 59.7973 26.0312 58.3195 26.0312ZM11.0681 5.4013L26.8351 9.90636C26.8358 9.90659 26.8366 9.90671 26.8373 9.90695L37.4046 12.9262H9.18739L11.0681 5.4013ZM55.6392 19.2285C54.6261 18.2761 53.2641 17.6908 51.7672 17.6908C51.7657 17.6908 51.7642 17.691 51.7626 17.691H5.65976C3.52465 17.691 1.78758 15.9539 1.78758 13.8188C1.78758 11.6837 3.52465 9.94662 5.65976 9.94662H8.08999L7.34536 12.9262H5.66C5.16652 12.9262 4.76645 13.3263 4.76645 13.8198C4.76645 14.3132 5.16652 14.7133 5.66 14.7133H8.03995C8.04114 14.7133 8.04245 14.7136 8.04376 14.7136C8.04472 14.7136 8.04567 14.7133 8.0465 14.7133H43.7816C43.7828 14.7133 43.7839 14.7136 43.7849 14.7136C43.7859 14.7136 43.7868 14.7133 43.7878 14.7133H50.5747C51.0682 14.7133 51.4683 14.3132 51.4683 13.8198C51.4683 13.3263 51.0682 12.9262 50.5747 12.9262H43.9097L33.4814 9.94662H51.7671C53.9021 9.94662 55.6392 11.6837 55.6392 13.8188V19.2285ZM59.2125 43.0087C59.2125 43.5011 58.8119 43.9018 58.3195 43.9018H46.287L42.1172 37.6476L46.287 31.3925H58.3195C58.332 31.3925 58.3441 31.3911 58.3565 31.3906C58.6563 31.3864 58.9441 31.333 59.2125 31.238V43.0087ZM58.3195 29.6044C58.3133 29.6044 58.3072 29.6053 58.301 29.6054H57.4264V27.8183H58.3195C58.8119 27.8183 59.2125 28.219 59.2125 28.7114C59.2125 29.2038 58.8119 29.6044 58.3195 29.6044Z" fill="#5EA0C4"/>
<path d="M49.3835 34.3712C47.5769 34.3712 46.1072 35.841 46.1072 37.6477C46.1072 39.4543 47.5769 40.9241 49.3835 40.9241C51.1902 40.9241 52.6599 39.4543 52.6599 37.6477C52.6599 35.841 51.1902 34.3712 49.3835 34.3712ZM49.3835 39.137C48.5623 39.137 47.8943 38.4689 47.8943 37.6477C47.8943 36.8265 48.5623 36.1583 49.3835 36.1583C50.2048 36.1583 50.8728 36.8265 50.8728 37.6477C50.8728 38.4689 50.2048 39.137 49.3835 39.137Z" fill="#5EA0C4"/>
</svg>
