<svg width="60" height="59" viewBox="0 0 60 59" fill="none" xmlns="http://www.w3.org/2000/svg">
<path d="M22.25 8.6875H18.375V10.625H22.25V8.6875Z" fill="#5EA0C4"/>
<path d="M22.25 12.5625H18.375V14.5H22.25V12.5625Z" fill="#5EA0C4"/>
<path d="M22.25 16.4375H18.375V18.375H22.25V16.4375Z" fill="#5EA0C4"/>
<path d="M35.8125 9.65625H33.875C33.8744 10.1699 33.6701 10.6624 33.3068 11.0256C32.9436 11.3888 32.4512 11.5931 31.9375 11.5938V13.5312C32.9649 13.5301 33.9498 13.1215 34.6763 12.395C35.4027 11.6686 35.8113 10.6836 35.8125 9.65625Z" fill="#5EA0C4"/>
<path d="M40.6562 14.5V12.5625C40.1426 12.5619 39.6501 12.3576 39.2869 11.9943C38.9237 11.6311 38.7194 11.1387 38.7188 10.625H36.7812C36.7824 11.6524 37.191 12.6373 37.9175 13.3638C38.6439 14.0902 39.6289 14.4988 40.6562 14.5Z" fill="#5EA0C4"/>
<path d="M50.8272 56.6688C49.1917 56.9661 47.5236 57.0406 45.8681 56.8903L29.024 55.359C28.7532 55.3343 28.5024 55.2062 28.3237 55.0014C28.1449 54.7965 28.052 54.5306 28.0643 54.259C28.0765 53.9874 28.193 53.731 28.3895 53.5431C28.5859 53.3552 28.8473 53.2502 29.1192 53.25H42.1094C42.7518 53.249 43.3675 52.9932 43.8216 52.5387C44.2756 52.0842 44.5308 51.4682 44.5312 50.8258V50.8032C44.5302 50.2941 44.365 49.799 44.0603 49.3912L41.8422 46.4351C41.7016 46.247 41.6255 46.0186 41.625 45.7837V45.6176C41.625 45.4028 41.6887 45.1927 41.808 45.0141C41.9274 44.8355 42.097 44.6962 42.2955 44.614C42.494 44.5318 42.7124 44.5103 42.9231 44.5522C43.1339 44.5941 43.3274 44.6976 43.4793 44.8495L47.7212 49.0913C47.8112 49.1812 47.918 49.2526 48.0355 49.3013C48.1531 49.35 48.279 49.375 48.4062 49.375H59.0625V47.4375H48.8074L44.8495 43.4793C44.7499 43.3799 44.6435 43.2875 44.5312 43.2027V21.2813C44.5312 21.0243 44.4292 20.7779 44.2475 20.5962C44.0658 20.4146 43.8194 20.3125 43.5625 20.3125H42.5938V17.4063H44.0469C44.9461 17.4063 45.8085 17.049 46.4444 16.4132C47.0803 15.7773 47.4375 14.9149 47.4375 14.0156C47.4375 13.1164 47.0803 12.254 46.4444 11.6181C45.8085 10.9822 44.9461 10.625 44.0469 10.625H43.9467C44.4317 10.0438 44.6811 9.3019 44.6457 8.54578C44.6102 7.78965 44.2924 7.07432 43.7552 6.54111C43.2179 6.00789 42.5002 5.69557 41.7438 5.66584C40.9874 5.63611 40.2474 5.89114 39.6699 6.38054C39.5783 5.42099 39.1323 4.53004 38.419 3.88166C37.7057 3.23328 36.7764 2.87401 35.8125 2.87401C34.8486 2.87401 33.9193 3.23328 33.206 3.88166C32.4927 4.53004 32.0467 5.42099 31.9551 6.38054C31.3776 5.89114 30.6376 5.63611 29.8812 5.66584C29.1248 5.69557 28.4071 6.00789 27.8698 6.54111C27.3326 7.07432 27.0148 7.78965 26.9793 8.54578C26.9439 9.3019 27.1933 10.0438 27.6783 10.625H27.5781C27.0754 10.6245 26.5789 10.7365 26.125 10.9528V6.75C26.125 5.20843 25.5126 3.73 24.4226 2.63994C23.3325 1.54989 21.8541 0.9375 20.3125 0.9375C18.7709 0.9375 17.2925 1.54989 16.2024 2.63994C15.1124 3.73 14.5 5.20843 14.5 6.75V20.3125H13.5312C13.2743 20.3125 13.0279 20.4146 12.8462 20.5962C12.6646 20.7779 12.5625 21.0243 12.5625 21.2813V25.5411L7.36043 30H0.9375V31.9375H7.71875C7.94999 31.9375 8.1736 31.8548 8.34916 31.7043L13.964 26.8915C14.5413 26.397 15.2762 26.1252 16.0363 26.125C16.1157 26.125 16.1932 26.1485 16.2592 26.1926C16.3252 26.2367 16.3766 26.2994 16.4069 26.3727C16.4373 26.446 16.4452 26.5267 16.4297 26.6045C16.4143 26.6823 16.376 26.7538 16.3199 26.8099L12.8462 30.2837C12.7107 30.4192 12.6185 30.5918 12.5811 30.7798C12.5437 30.9677 12.5629 31.1625 12.6362 31.3395C12.7095 31.5165 12.8337 31.6678 12.993 31.7743C13.1523 31.8807 13.3396 31.9375 13.5312 31.9375H23.7031C23.8316 31.9375 23.9548 31.9885 24.0456 32.0794C24.1365 32.1702 24.1875 32.2934 24.1875 32.4219C24.1875 32.5503 24.1365 32.6735 24.0456 32.7644C23.9548 32.8552 23.8316 32.9063 23.7031 32.9063H16.4375C16.1806 32.9063 15.9342 33.0083 15.7525 33.19C15.5708 33.3717 15.4688 33.6181 15.4688 33.875C15.4688 34.1319 15.5708 34.3783 15.7525 34.56C15.9342 34.7417 16.1806 34.8438 16.4375 34.8438H26.6094C26.7378 34.8438 26.861 34.8948 26.9519 34.9856C27.0427 35.0765 27.0938 35.1997 27.0938 35.3281C27.0938 35.4566 27.0427 35.5798 26.9519 35.6706C26.861 35.7615 26.7378 35.8125 26.6094 35.8125H16.4375C16.1806 35.8125 15.9342 35.9146 15.7525 36.0962C15.5708 36.2779 15.4688 36.5243 15.4688 36.7813C15.4688 37.0382 15.5708 37.2846 15.7525 37.4663C15.9342 37.6479 16.1806 37.75 16.4375 37.75H24.6719C24.8003 37.75 24.9235 37.801 25.0144 37.8919C25.1052 37.9827 25.1562 38.1059 25.1562 38.2344C25.1562 38.3628 25.1052 38.486 25.0144 38.5769C24.9235 38.6677 24.8003 38.7188 24.6719 38.7188H16.4375C16.1806 38.7188 15.9342 38.8208 15.7525 39.0025C15.5708 39.1842 15.4688 39.4306 15.4688 39.6875C15.4688 39.9444 15.5708 40.1908 15.7525 40.3725C15.9342 40.5542 16.1806 40.6563 16.4375 40.6563H21.2207C21.2356 40.657 21.2497 40.6632 21.2603 40.6737C21.2709 40.6841 21.2772 40.6981 21.2781 40.713C21.2791 40.7279 21.2745 40.7426 21.2652 40.7543C21.256 40.766 21.2428 40.7738 21.2281 40.7764L14.5758 41.6079L7.98516 39.7248C7.89852 39.7 7.80885 39.6875 7.71875 39.6875H0.9375V41.625H7.58312L12.5625 43.0477V52.2813H12.5648C12.5639 52.4085 12.5882 52.5347 12.6365 52.6525C12.6847 52.7703 12.7558 52.8774 12.8457 52.9675C12.9356 53.0576 13.0425 53.129 13.1601 53.1775C13.2778 53.226 13.404 53.2506 13.5312 53.25H26.3188C26.1557 53.6816 26.0946 54.1451 26.1403 54.6042C26.186 55.0633 26.3373 55.5056 26.5822 55.8966C26.8271 56.2876 27.1592 56.6167 27.5523 56.8581C27.9455 57.0996 28.3891 57.2469 28.8486 57.2885L45.6927 58.8203C46.3056 58.8762 46.9195 58.9041 47.5344 58.904C48.7549 58.9039 49.9729 58.7941 51.1737 58.5758L59.2358 57.11L58.8892 55.2037L50.8272 56.6688ZM24.1875 16.4375C24.1878 16.1807 24.2899 15.9344 24.4716 15.7528C24.6532 15.5712 24.8994 15.469 25.1562 15.4688H27.0938C28.1211 15.4699 29.1061 15.8785 29.8325 16.605C30.559 17.3314 30.9676 18.3164 30.9688 19.3438C30.9685 19.6006 30.8663 19.8468 30.6847 20.0284C30.5031 20.2101 30.2568 20.3122 30 20.3125H28.0625C27.0351 20.3113 26.0502 19.9027 25.3237 19.1763C24.5973 18.4498 24.1887 17.4649 24.1875 16.4375ZM27.5781 12.5625H30C30.1916 12.5625 30.3789 12.5057 30.5382 12.3992C30.6975 12.2928 30.8217 12.1415 30.895 11.9645C30.9684 11.7875 30.9876 11.5927 30.9502 11.4047C30.9128 11.2168 30.8205 11.0442 30.685 10.9087L29.2319 9.4556C29.131 9.35473 29.051 9.23498 28.9964 9.10319C28.9418 8.9714 28.9137 8.83015 28.9137 8.6875C28.9137 8.54485 28.9418 8.4036 28.9964 8.27181C29.051 8.14002 29.131 8.02027 29.2319 7.9194C29.3328 7.81854 29.4525 7.73852 29.5843 7.68393C29.7161 7.62934 29.8574 7.60125 30 7.60125C30.1426 7.60125 30.2839 7.62934 30.4157 7.68393C30.5475 7.73852 30.6672 7.81854 30.7681 7.9194L32.2212 9.37253C32.3567 9.50802 32.5293 9.60029 32.7172 9.63767C32.9052 9.67505 33.1 9.65587 33.277 9.58254C33.454 9.50922 33.6053 9.38505 33.7117 9.22573C33.8182 9.06641 33.875 8.87911 33.875 8.6875V6.75C33.875 6.23614 34.0791 5.74333 34.4425 5.37998C34.8058 5.01663 35.2986 4.8125 35.8125 4.8125C36.3264 4.8125 36.8192 5.01663 37.1825 5.37998C37.5459 5.74333 37.75 6.23614 37.75 6.75V8.6875C37.75 8.87911 37.8068 9.06641 37.9133 9.22573C38.0197 9.38505 38.171 9.50922 38.348 9.58254C38.525 9.65587 38.7198 9.67505 38.9078 9.63767C39.0957 9.60029 39.2683 9.50802 39.4038 9.37253L40.8569 7.9194C40.9578 7.81854 41.0775 7.73852 41.2093 7.68393C41.3411 7.62934 41.4823 7.60125 41.625 7.60125C41.7677 7.60125 41.9089 7.62934 42.0407 7.68393C42.1725 7.73852 42.2922 7.81854 42.3931 7.9194C42.494 8.02027 42.574 8.14002 42.6286 8.27181C42.6832 8.4036 42.7113 8.54485 42.7113 8.6875C42.7113 8.83015 42.6832 8.9714 42.6286 9.10319C42.574 9.23498 42.494 9.35473 42.3931 9.4556L40.94 10.9087C40.8045 11.0442 40.7122 11.2168 40.6748 11.4047C40.6374 11.5927 40.6566 11.7875 40.73 11.9645C40.8033 12.1415 40.9275 12.2928 41.0868 12.3992C41.2461 12.5057 41.4334 12.5625 41.625 12.5625H44.0469C44.4323 12.5625 44.8019 12.7156 45.0744 12.9881C45.3469 13.2606 45.5 13.6302 45.5 14.0156C45.5 14.401 45.3469 14.7706 45.0744 15.0431C44.8019 15.3157 44.4323 15.4688 44.0469 15.4688H41.625C41.3681 15.4688 41.1217 15.5708 40.94 15.7525C40.7583 15.9342 40.6562 16.1806 40.6562 16.4375V16.9535C39.5259 15.9383 38.0423 15.4072 36.5244 15.4745C35.0066 15.5417 33.5757 16.2019 32.5396 17.3131C32.1244 16.2035 31.3807 15.247 30.4076 14.5712C29.4345 13.8955 28.2785 13.5327 27.0938 13.5313H26.2098C26.31 13.2483 26.4953 13.0033 26.7403 12.8299C26.9853 12.6564 27.278 12.563 27.5781 12.5625ZM40.5336 20.3125H33.0289C33.2434 19.4804 33.7285 18.7432 34.4077 18.2168C35.087 17.6904 35.9219 17.4048 36.7812 17.4048C37.6406 17.4048 38.4755 17.6904 39.1548 18.2168C39.834 18.7432 40.3191 19.4804 40.5336 20.3125ZM16.4375 6.75C16.4375 5.72229 16.8458 4.73667 17.5725 4.00996C18.2992 3.28326 19.2848 2.875 20.3125 2.875C21.3402 2.875 22.3258 3.28326 23.0525 4.00996C23.7792 4.73667 24.1875 5.72229 24.1875 6.75V13.6979C23.6213 13.8988 23.1312 14.2699 22.7843 14.7604C22.4374 15.2509 22.2508 15.8367 22.25 16.4375C22.249 17.8683 22.7779 19.2487 23.7347 20.3125H16.4375V6.75ZM18.375 22.25H20.3125V30H18.375V22.25ZM16.0363 24.1875C15.5152 24.1877 14.9971 24.2675 14.5 24.4241V22.25H16.4375V24.2244C16.3051 24.2006 16.1709 24.1883 16.0363 24.1875ZM16.4375 29.4326V30H15.8699L16.4375 29.4326ZM18.375 43.0856L20.3125 42.8435V49.9423L18.375 48.0048V43.0856ZM14.6201 43.555L16.4375 43.3278V48.005L14.5 49.9425V43.5625C14.5402 43.5625 14.5803 43.56 14.6201 43.555ZM15.8699 51.3125L17.4062 49.7762L18.9426 51.3125H15.8699ZM22.25 42.4262C22.545 42.2487 22.7892 41.9981 22.9589 41.6986C23.1286 41.3991 23.2181 41.0608 23.2188 40.7166C23.2188 40.6963 23.2188 40.6762 23.2178 40.656H24.6719C25.0342 40.6558 25.3919 40.5744 25.7186 40.4177C26.0453 40.261 26.3327 40.033 26.5596 39.7505C26.7866 39.468 26.9473 39.1383 27.0299 38.7855C27.1125 38.4327 27.115 38.0659 27.0371 37.712C27.6328 37.6052 28.1669 37.2792 28.5343 36.7982C28.9016 36.3173 29.0756 35.7162 29.0219 35.1134C28.9683 34.5106 28.6909 33.9497 28.2444 33.5412C27.7979 33.1327 27.2146 32.9062 26.6094 32.9063H26.0766C26.1481 32.5544 26.1405 32.191 26.0544 31.8424C25.9683 31.4938 25.8058 31.1687 25.5787 30.8906C25.3516 30.6125 25.0655 30.3883 24.7411 30.2343C24.4167 30.0803 24.0622 30.0002 23.7031 30H22.25V22.25H42.5938V42.5968C41.8132 42.628 41.0749 42.9598 40.5332 43.5228C39.9916 44.0858 39.6886 44.8364 39.6875 45.6176V45.7837C39.6889 46.4379 39.9012 47.0742 40.293 47.5981L42.5109 50.554C42.5647 50.6259 42.5939 50.7133 42.5941 50.8032V50.8258C42.5943 50.9546 42.5433 51.0782 42.4524 51.1695C42.3615 51.2607 42.2382 51.3122 42.1094 51.3125H22.25V42.4262Z" fill="#5EA0C4"/>
</svg>
